<?xml version="1.0" encoding="UTF-8" standalone="no"?>
<!DOCTYPE svg PUBLIC "-//W3C//DTD SVG 1.1//EN" "http://www.w3.org/Graphics/SVG/1.1/DTD/svg11.dtd">
<svg width="100%" height="100%" viewBox="0 0 300 300" version="1.1" xmlns="http://www.w3.org/2000/svg" xmlns:xlink="http://www.w3.org/1999/xlink" xml:space="preserve" xmlns:serif="http://www.serif.com/" style="fill-rule:evenodd;clip-rule:evenodd;stroke-linejoin:round;stroke-miterlimit:1.41421;">
    <path id="XMLID_497_" d="M5.299,144.645L74.425,170.445L101.181,256.492C102.893,262.003 109.632,264.04 114.105,260.383L152.637,228.971C156.676,225.68 162.429,225.516 166.65,228.58L236.148,279.037C240.933,282.515 247.712,279.893 248.912,274.111L299.823,29.22C301.133,22.904 294.927,17.635 288.913,19.961L5.218,129.402C-1.783,132.102 -1.722,142.014 5.299,144.645ZM96.869,156.711L231.967,73.504C234.395,72.013 236.893,75.296 234.808,77.23L123.313,180.87C119.394,184.518 116.866,189.4 116.15,194.699L112.352,222.845C111.849,226.603 106.57,226.976 105.533,223.339L90.926,172.014C89.253,166.16 91.691,159.907 96.869,156.711Z" style="fill:white;fill-rule:nonzero;"/>
</svg>
