<?xml version="1.0" ?><svg enable-background="new 0 0 32 32" version="1.1" viewBox="0 0 32 32" xml:space="preserve" xmlns="http://www.w3.org/2000/svg" xmlns:xlink="http://www.w3.org/1999/xlink"><g id="Flat_copy"><g><path d="M16,0C7.163,0,0,7.163,0,16c0,8.836,7.163,16,16,16s16-7.164,16-16C32,7.163,24.837,0,16,0z" fill="#333333"/></g><path d="M22.644,10.534c-0.016,0.023-1.396,2.017-4.793,3.404c0.2,0.41,0.393,0.828,0.572,1.248   c0.064,0.151,0.126,0.298,0.186,0.446c2.956-0.372,5.868,0.253,5.992,0.279C24.581,13.872,23.851,12,22.644,10.534z M19.133,16.99   c1.128,3.101,1.587,5.627,1.675,6.146c1.932-1.304,3.304-3.373,3.687-5.771C24.317,17.307,21.91,16.545,19.133,16.99z    M19.359,23.922c-0.127-0.752-0.627-3.387-1.837-6.533c-0.019,0.007-0.038,0.012-0.058,0.019c-5.076,1.769-6.734,5.335-6.752,5.375   c1.461,1.136,3.293,1.822,5.288,1.822C17.191,24.604,18.326,24.361,19.359,23.922z M17.189,12.656   c3.246-1.217,4.472-3.082,4.493-3.114C20.167,8.207,18.178,7.397,16,7.397c-0.699,0-1.378,0.085-2.027,0.241   C14.101,7.811,15.717,9.955,17.189,12.656z M16.934,15.963c-0.216-0.489-0.452-0.979-0.698-1.462   c-4.43,1.326-8.681,1.231-8.833,1.225C7.401,15.818,7.396,15.907,7.396,16c0,2.21,0.834,4.226,2.204,5.748   c-0.003-0.004,2.352-4.181,6.995-5.683C16.707,16.029,16.821,15.995,16.934,15.963z M25.869,13.972   c0.136,0.663,0.206,1.345,0.206,2.029c0,0.682-0.069,1.364-0.206,2.027c-0.133,0.649-0.33,1.285-0.587,1.894   c-0.252,0.597-0.564,1.174-0.929,1.711c-0.359,0.534-0.774,1.034-1.229,1.491c-0.456,0.454-0.958,0.868-1.491,1.23   c-0.539,0.363-1.115,0.674-1.712,0.928c-0.609,0.257-1.245,0.453-1.893,0.586c-0.664,0.137-1.347,0.207-2.029,0.207   c-0.683,0-1.366-0.069-2.029-0.207c-0.648-0.133-1.285-0.33-1.893-0.586c-0.597-0.254-1.174-0.566-1.712-0.928   c-0.533-0.362-1.034-0.776-1.489-1.23c-0.456-0.457-0.87-0.957-1.23-1.491c-0.363-0.537-0.676-1.114-0.929-1.711   c-0.258-0.609-0.455-1.245-0.589-1.894C5.994,17.364,5.925,16.682,5.925,16c0-0.683,0.069-1.366,0.204-2.029   c0.133-0.649,0.33-1.286,0.588-1.893c0.253-0.599,0.566-1.175,0.929-1.712c0.36-0.534,0.774-1.034,1.23-1.491   c0.455-0.455,0.957-0.867,1.489-1.228c0.539-0.365,1.115-0.677,1.712-0.931c0.608-0.258,1.245-0.455,1.893-0.587   C14.634,5.993,15.317,5.925,16,5.925c0.682,0,1.365,0.069,2.029,0.205c0.647,0.132,1.284,0.329,1.893,0.587   c0.597,0.253,1.173,0.566,1.712,0.931c0.533,0.361,1.035,0.774,1.491,1.228c0.455,0.457,0.87,0.957,1.229,1.491   c0.365,0.537,0.677,1.114,0.929,1.712C25.54,12.686,25.737,13.323,25.869,13.972z M15.524,13.176   c-1.489-2.646-3.08-4.805-3.195-4.958c-2.4,1.133-4.19,3.344-4.749,6.009C7.807,14.228,11.393,14.273,15.524,13.176z" fill="#FFFFFF"/></g></svg>