<?xml version="1.0" ?><svg enable-background="new 0 0 32 32" version="1.1" viewBox="0 0 32 32" xml:space="preserve" xmlns="http://www.w3.org/2000/svg" xmlns:xlink="http://www.w3.org/1999/xlink"><g id="Flat_copy"><g><path d="M16,0C7.163,0,0,7.163,0,16c0,8.836,7.163,16,16,16s16-7.164,16-16C32,7.163,24.837,0,16,0z" fill="#333333"/></g><path d="M16.735,22.517c-2.644,0.14-3.881-0.456-5.015-1.541c-1.266-1.212-0.758-2.594,0.274-2.663   c1.031-0.07,1.65,1.191,2.2,1.543c0.55,0.35,2.64,1.147,3.745-0.142c1.202-1.401-0.8-2.126-2.268-2.346   c-2.095-0.316-4.741-1.472-4.535-3.75c0.206-2.276,1.896-3.443,3.675-3.608c2.268-0.21,3.744,0.35,4.912,1.367   c1.35,1.174,0.619,2.486-0.24,2.592c-0.857,0.105-1.819-1.931-3.709-1.962c-1.948-0.031-3.264,2.067-0.86,2.663   c2.406,0.596,4.982,0.84,5.909,3.082C21.751,19.995,19.381,22.376,16.735,22.517z M24.191,17.183   c0.05-0.373,0.078-0.753,0.078-1.138c0-4.633-3.722-8.39-8.312-8.39c-0.456,0-0.904,0.038-1.339,0.111   c-0.781-0.516-1.71-0.817-2.709-0.817c-2.741,0-4.96,2.253-4.96,5.033c0,1.012,0.293,1.951,0.799,2.74   c-0.068,0.431-0.103,0.873-0.103,1.322c0,4.634,3.72,8.39,8.312,8.39c0.518,0,1.023-0.051,1.514-0.141   c0.762,0.479,1.66,0.759,2.622,0.759c2.74,0,4.96-2.253,4.96-5.033C25.052,18.967,24.735,17.99,24.191,17.183z" fill="#FFFFFF"/></g></svg>